<svg width="222" height="60" viewBox="0 0 222 60" fill="none" xmlns="http://www.w3.org/2000/svg">
<path d="M29.1861 3.90593C29.9029 2.36246 32.0971 2.36246 32.8139 3.90593L35.0643 8.75167C35.3557 9.37917 35.9508 9.81149 36.6376 9.89474L41.9416 10.5376C43.631 10.7423 44.3091 12.8292 43.0627 13.9879L39.1495 17.6255C38.6428 18.0966 38.4155 18.7961 38.5486 19.4751L39.5762 24.7181C39.9035 26.3881 38.1283 27.6779 36.6412 26.8505L31.9724 24.253C31.3678 23.9166 30.6322 23.9166 30.0276 24.253L25.3588 26.8505C23.8717 27.6779 22.0965 26.3881 22.4238 24.7181L23.4514 19.4751C23.5845 18.7961 23.3572 18.0966 22.8505 17.6255L18.9373 13.9879C17.6909 12.8292 18.369 10.7423 20.0584 10.5376L25.3624 9.89474C26.0492 9.81149 26.6443 9.37917 26.9357 8.75167L29.1861 3.90593Z" fill="#FFCC6A"/>
<path d="M69.1861 3.90593C69.9029 2.36246 72.0971 2.36246 72.8139 3.90593L75.0643 8.75167C75.3557 9.37917 75.9508 9.81149 76.6376 9.89474L81.9416 10.5376C83.631 10.7423 84.3091 12.8292 83.0627 13.9879L79.1495 17.6255C78.6428 18.0966 78.4155 18.7961 78.5486 19.4751L79.5762 24.7181C79.9035 26.3881 78.1283 27.6779 76.6412 26.8505L71.9724 24.253C71.3678 23.9166 70.6322 23.9166 70.0276 24.253L65.3588 26.8505C63.8717 27.6779 62.0965 26.3881 62.4238 24.7181L63.4514 19.4751C63.5845 18.7961 63.3572 18.0966 62.8505 17.6255L58.9373 13.9879C57.6909 12.8292 58.369 10.7423 60.0584 10.5376L65.3624 9.89474C66.0492 9.81149 66.6443 9.37917 66.9357 8.75167L69.1861 3.90593Z" fill="#FFCC6A"/>
<path d="M109.186 3.90593C109.903 2.36246 112.097 2.36246 112.814 3.90593L115.064 8.75167C115.356 9.37917 115.951 9.81149 116.638 9.89474L121.942 10.5376C123.631 10.7423 124.309 12.8292 123.063 13.9879L119.15 17.6255C118.643 18.0966 118.415 18.7961 118.549 19.4751L119.576 24.7181C119.904 26.3881 118.128 27.6779 116.641 26.8505L111.972 24.253C111.368 23.9166 110.632 23.9166 110.028 24.253L105.359 26.8505C103.872 27.6779 102.096 26.3881 102.424 24.7181L103.451 19.4751C103.585 18.7961 103.357 18.0966 102.85 17.6255L98.9373 13.9879C97.6909 12.8292 98.369 10.7423 100.058 10.5376L105.362 9.89474C106.049 9.81149 106.644 9.37917 106.936 8.75167L109.186 3.90593Z" fill="#FFCC6A"/>
<path d="M149.186 3.90593C149.903 2.36246 152.097 2.36246 152.814 3.90593L155.064 8.75167C155.356 9.37917 155.951 9.81149 156.638 9.89474L161.942 10.5376C163.631 10.7423 164.309 12.8292 163.063 13.9879L159.15 17.6255C158.643 18.0966 158.415 18.7961 158.549 19.4751L159.576 24.7181C159.904 26.3881 158.128 27.6779 156.641 26.8505L151.972 24.253C151.368 23.9166 150.632 23.9166 150.028 24.253L145.359 26.8505C143.872 27.6779 142.096 26.3881 142.424 24.7181L143.451 19.4751C143.585 18.7961 143.357 18.0966 142.85 17.6255L138.937 13.9879C137.691 12.8292 138.369 10.7423 140.058 10.5376L145.362 9.89474C146.049 9.81149 146.644 9.37917 146.936 8.75167L149.186 3.90593Z" fill="#FFCC6A"/>
<path d="M189.186 3.90593C189.903 2.36246 192.097 2.36246 192.814 3.90593L195.064 8.75167C195.356 9.37917 195.951 9.81149 196.638 9.89474L201.942 10.5376C203.631 10.7423 204.309 12.8292 203.063 13.9879L199.15 17.6255C198.643 18.0966 198.415 18.7961 198.549 19.4751L199.576 24.7181C199.904 26.3881 198.128 27.6779 196.641 26.8505L191.972 24.253C191.368 23.9166 190.632 23.9166 190.028 24.253L185.359 26.8505C183.872 27.6779 182.096 26.3881 182.424 24.7181L183.451 19.4751C183.585 18.7961 183.357 18.0966 182.85 17.6255L178.937 13.9879C177.691 12.8292 178.369 10.7423 180.058 10.5376L185.362 9.89474C186.049 9.81149 186.644 9.37917 186.936 8.75167L189.186 3.90593Z" fill="#FFCC6A"/>
<path d="M7.502 56.216C6.29 56.216 5.222 55.946 4.298 55.406C3.374 54.854 2.648 54.092 2.12 53.12C1.604 52.136 1.346 50.996 1.346 49.7C1.346 48.416 1.604 47.288 2.12 46.316C2.648 45.332 3.374 44.564 4.298 44.012C5.222 43.46 6.29 43.184 7.502 43.184C8.738 43.184 9.818 43.46 10.742 44.012C11.666 44.564 12.38 45.332 12.884 46.316C13.4 47.288 13.658 48.416 13.658 49.7C13.658 50.996 13.4 52.136 12.884 53.12C12.38 54.092 11.666 54.854 10.742 55.406C9.818 55.946 8.738 56.216 7.502 56.216ZM7.502 54.884C8.414 54.884 9.218 54.68 9.914 54.272C10.61 53.852 11.15 53.258 11.534 52.49C11.918 51.71 12.11 50.78 12.11 49.7C12.11 48.62 11.918 47.696 11.534 46.928C11.15 46.148 10.61 45.554 9.914 45.146C9.218 44.738 8.414 44.534 7.502 44.534C6.59 44.534 5.786 44.738 5.09 45.146C4.406 45.554 3.866 46.148 3.47 46.928C3.086 47.696 2.894 48.62 2.894 49.7C2.894 50.78 3.086 51.71 3.47 52.49C3.866 53.258 4.406 53.852 5.09 54.272C5.786 54.68 6.59 54.884 7.502 54.884ZM18.3618 56L14.9418 46.982H16.5258L19.2438 54.542L21.9618 46.982H23.5098L20.1078 56H18.3618ZM28.7482 56.216C27.8962 56.216 27.1402 56.024 26.4802 55.64C25.8202 55.244 25.2982 54.692 24.9142 53.984C24.5422 53.264 24.3562 52.436 24.3562 51.5C24.3562 50.54 24.5422 49.712 24.9142 49.016C25.2862 48.308 25.8022 47.756 26.4622 47.36C27.1342 46.964 27.9082 46.766 28.7842 46.766C29.6602 46.766 30.4102 46.964 31.0342 47.36C31.6582 47.756 32.1322 48.272 32.4562 48.908C32.7922 49.544 32.9602 50.24 32.9602 50.996C32.9602 51.116 32.9602 51.248 32.9602 51.392C32.9602 51.524 32.9542 51.674 32.9422 51.842H25.4902V50.672H31.4662C31.4302 49.844 31.1542 49.202 30.6382 48.746C30.1342 48.278 29.5042 48.044 28.7482 48.044C28.2322 48.044 27.7522 48.164 27.3082 48.404C26.8642 48.632 26.5042 48.968 26.2282 49.412C25.9642 49.856 25.8322 50.414 25.8322 51.086V51.59C25.8322 52.322 25.9702 52.94 26.2462 53.444C26.5222 53.948 26.8822 54.326 27.3262 54.578C27.7702 54.818 28.2442 54.938 28.7482 54.938C29.3722 54.938 29.8882 54.8 30.2962 54.524C30.7162 54.236 31.0222 53.846 31.2142 53.354H32.7082C32.5522 53.906 32.2942 54.398 31.9342 54.83C31.5742 55.25 31.1242 55.586 30.5842 55.838C30.0562 56.09 29.4442 56.216 28.7482 56.216ZM34.9822 56V46.982H36.3502L36.4762 48.71C36.6682 48.302 36.9202 47.954 37.2322 47.666C37.5562 47.378 37.9402 47.156 38.3842 47C38.8282 46.844 39.3322 46.766 39.8962 46.766V48.35H39.4102C39.0142 48.35 38.6362 48.404 38.2762 48.512C37.9282 48.608 37.6162 48.77 37.3402 48.998C37.0762 49.226 36.8662 49.538 36.7102 49.934C36.5662 50.318 36.4942 50.804 36.4942 51.392V56H34.9822ZM52.1869 56V53.3H45.7969V52.13L51.9169 43.4H53.6809V51.968H55.5529V53.3H53.6809V56H52.1869ZM47.4709 51.968H52.2589V45.074L47.4709 51.968ZM56.1009 58.214L57.1449 54.236H58.7109L57.1449 58.214H56.1009ZM65.4913 56.216C64.3753 56.216 63.4153 55.946 62.6113 55.406C61.8193 54.854 61.2073 54.092 60.7753 53.12C60.3433 52.136 60.1273 50.996 60.1273 49.7C60.1273 48.404 60.3433 47.27 60.7753 46.298C61.2073 45.314 61.8193 44.552 62.6113 44.012C63.4153 43.46 64.3753 43.184 65.4913 43.184C66.5953 43.184 67.5433 43.46 68.3353 44.012C69.1273 44.552 69.7333 45.314 70.1533 46.298C70.5853 47.27 70.8013 48.404 70.8013 49.7C70.8013 50.996 70.5853 52.136 70.1533 53.12C69.7333 54.092 69.1273 54.854 68.3353 55.406C67.5433 55.946 66.5953 56.216 65.4913 56.216ZM65.4733 54.884C66.2053 54.884 66.8533 54.68 67.4173 54.272C67.9933 53.852 68.4433 53.258 68.7673 52.49C69.0913 51.71 69.2533 50.78 69.2533 49.7C69.2533 48.62 69.0913 47.696 68.7673 46.928C68.4433 46.148 67.9933 45.554 67.4173 45.146C66.8533 44.738 66.2053 44.534 65.4733 44.534C64.7413 44.534 64.0873 44.738 63.5113 45.146C62.9473 45.554 62.4973 46.148 62.1613 46.928C61.8373 47.696 61.6753 48.62 61.6753 49.7C61.6753 50.78 61.8373 51.71 62.1613 52.49C62.4973 53.258 62.9473 53.852 63.5113 54.272C64.0873 54.68 64.7413 54.884 65.4733 54.884ZM77.8487 56.216C76.7327 56.216 75.7727 55.946 74.9687 55.406C74.1767 54.854 73.5647 54.092 73.1327 53.12C72.7007 52.136 72.4847 50.996 72.4847 49.7C72.4847 48.404 72.7007 47.27 73.1327 46.298C73.5647 45.314 74.1767 44.552 74.9687 44.012C75.7727 43.46 76.7327 43.184 77.8487 43.184C78.9527 43.184 79.9007 43.46 80.6927 44.012C81.4847 44.552 82.0907 45.314 82.5107 46.298C82.9427 47.27 83.1587 48.404 83.1587 49.7C83.1587 50.996 82.9427 52.136 82.5107 53.12C82.0907 54.092 81.4847 54.854 80.6927 55.406C79.9007 55.946 78.9527 56.216 77.8487 56.216ZM77.8307 54.884C78.5627 54.884 79.2107 54.68 79.7747 54.272C80.3507 53.852 80.8007 53.258 81.1247 52.49C81.4487 51.71 81.6107 50.78 81.6107 49.7C81.6107 48.62 81.4487 47.696 81.1247 46.928C80.8007 46.148 80.3507 45.554 79.7747 45.146C79.2107 44.738 78.5627 44.534 77.8307 44.534C77.0987 44.534 76.4447 44.738 75.8687 45.146C75.3047 45.554 74.8547 46.148 74.5187 46.928C74.1947 47.696 74.0327 48.62 74.0327 49.7C74.0327 50.78 74.1947 51.71 74.5187 52.49C74.8547 53.258 75.3047 53.852 75.8687 54.272C76.4447 54.68 77.0987 54.884 77.8307 54.884ZM90.2061 56.216C89.0901 56.216 88.1301 55.946 87.3261 55.406C86.5341 54.854 85.9221 54.092 85.4901 53.12C85.0581 52.136 84.8421 50.996 84.8421 49.7C84.8421 48.404 85.0581 47.27 85.4901 46.298C85.9221 45.314 86.5341 44.552 87.3261 44.012C88.1301 43.46 89.0901 43.184 90.2061 43.184C91.3101 43.184 92.2581 43.46 93.0501 44.012C93.8421 44.552 94.4481 45.314 94.8681 46.298C95.3001 47.27 95.5161 48.404 95.5161 49.7C95.5161 50.996 95.3001 52.136 94.8681 53.12C94.4481 54.092 93.8421 54.854 93.0501 55.406C92.2581 55.946 91.3101 56.216 90.2061 56.216ZM90.1881 54.884C90.9201 54.884 91.5681 54.68 92.1321 54.272C92.7081 53.852 93.1581 53.258 93.4821 52.49C93.8061 51.71 93.9681 50.78 93.9681 49.7C93.9681 48.62 93.8061 47.696 93.4821 46.928C93.1581 46.148 92.7081 45.554 92.1321 45.146C91.5681 44.738 90.9201 44.534 90.1881 44.534C89.4561 44.534 88.8021 44.738 88.2261 45.146C87.6621 45.554 87.2121 46.148 86.8761 46.928C86.5521 47.696 86.3901 48.62 86.3901 49.7C86.3901 50.78 86.5521 51.71 86.8761 52.49C87.2121 53.258 87.6621 53.852 88.2261 54.272C88.8021 54.68 89.4561 54.884 90.1881 54.884ZM106.733 56.216C105.881 56.216 105.137 56.06 104.501 55.748C103.865 55.424 103.361 54.992 102.989 54.452C102.629 53.912 102.401 53.306 102.305 52.634H103.781C103.925 53.318 104.255 53.87 104.771 54.29C105.299 54.71 105.959 54.92 106.751 54.92C107.351 54.92 107.867 54.782 108.299 54.506C108.731 54.218 109.061 53.834 109.289 53.354C109.529 52.874 109.649 52.34 109.649 51.752C109.649 51.14 109.529 50.6 109.289 50.132C109.049 49.664 108.719 49.304 108.299 49.052C107.879 48.788 107.387 48.656 106.823 48.656C106.127 48.656 105.533 48.806 105.041 49.106C104.561 49.406 104.207 49.802 103.979 50.294H102.521L103.583 43.4H110.207V44.714H104.753L104.033 48.566C104.333 48.218 104.735 47.936 105.239 47.72C105.743 47.492 106.325 47.378 106.985 47.378C107.609 47.378 108.167 47.486 108.659 47.702C109.163 47.918 109.595 48.224 109.955 48.62C110.327 49.016 110.609 49.484 110.801 50.024C111.005 50.552 111.107 51.122 111.107 51.734C111.107 52.346 111.005 52.922 110.801 53.462C110.609 54.002 110.327 54.482 109.955 54.902C109.583 55.31 109.127 55.634 108.587 55.874C108.047 56.102 107.429 56.216 106.733 56.216ZM113.453 51.356V50.078H120.581V51.356H113.453ZM126.539 56.216C125.807 56.216 125.159 56.096 124.595 55.856C124.043 55.604 123.599 55.25 123.263 54.794C122.927 54.338 122.717 53.804 122.633 53.192H124.181C124.253 53.516 124.385 53.81 124.577 54.074C124.769 54.338 125.033 54.548 125.369 54.704C125.705 54.86 126.101 54.938 126.557 54.938C126.989 54.938 127.337 54.878 127.601 54.758C127.877 54.626 128.081 54.458 128.213 54.254C128.357 54.038 128.429 53.804 128.429 53.552C128.429 53.18 128.339 52.898 128.159 52.706C127.991 52.514 127.739 52.364 127.403 52.256C127.067 52.148 126.665 52.052 126.197 51.968C125.813 51.896 125.429 51.8 125.045 51.68C124.673 51.548 124.331 51.392 124.019 51.212C123.719 51.02 123.479 50.78 123.299 50.492C123.119 50.204 123.029 49.85 123.029 49.43C123.029 48.914 123.161 48.458 123.425 48.062C123.701 47.654 124.079 47.336 124.559 47.108C125.051 46.88 125.633 46.766 126.305 46.766C127.265 46.766 128.045 47 128.645 47.468C129.245 47.936 129.599 48.614 129.707 49.502H128.213C128.153 49.046 127.955 48.692 127.619 48.44C127.295 48.176 126.851 48.044 126.287 48.044C125.723 48.044 125.291 48.158 124.991 48.386C124.703 48.614 124.559 48.914 124.559 49.286C124.559 49.526 124.643 49.736 124.811 49.916C124.979 50.096 125.219 50.252 125.531 50.384C125.855 50.504 126.245 50.612 126.701 50.708C127.289 50.816 127.829 50.96 128.321 51.14C128.813 51.32 129.209 51.584 129.509 51.932C129.821 52.28 129.977 52.778 129.977 53.426C129.989 53.978 129.851 54.464 129.563 54.884C129.275 55.304 128.873 55.634 128.357 55.874C127.853 56.102 127.247 56.216 126.539 56.216ZM135.296 56C134.756 56 134.288 55.916 133.892 55.748C133.496 55.58 133.19 55.298 132.974 54.902C132.77 54.494 132.668 53.948 132.668 53.264V48.26H131.102V46.982H132.668L132.866 44.822H134.18V46.982H136.808V48.26H134.18V53.264C134.18 53.828 134.294 54.212 134.522 54.416C134.75 54.608 135.152 54.704 135.728 54.704H136.682V56H135.296ZM141.716 56.216C140.972 56.216 140.354 56.09 139.862 55.838C139.382 55.586 139.022 55.25 138.782 54.83C138.542 54.398 138.422 53.93 138.422 53.426C138.422 52.814 138.578 52.298 138.89 51.878C139.214 51.458 139.664 51.14 140.24 50.924C140.828 50.696 141.512 50.582 142.292 50.582H144.704C144.704 50.018 144.614 49.55 144.434 49.178C144.266 48.806 144.014 48.524 143.678 48.332C143.342 48.14 142.934 48.044 142.454 48.044C141.878 48.044 141.374 48.194 140.942 48.494C140.522 48.782 140.264 49.202 140.168 49.754H138.62C138.692 49.118 138.908 48.578 139.268 48.134C139.64 47.69 140.108 47.354 140.672 47.126C141.236 46.886 141.83 46.766 142.454 46.766C143.282 46.766 143.972 46.922 144.524 47.234C145.088 47.534 145.508 47.96 145.784 48.512C146.072 49.052 146.216 49.694 146.216 50.438V56H144.866L144.776 54.398C144.656 54.65 144.5 54.89 144.308 55.118C144.128 55.334 143.912 55.526 143.66 55.694C143.42 55.85 143.138 55.976 142.814 56.072C142.49 56.168 142.124 56.216 141.716 56.216ZM141.95 54.938C142.382 54.938 142.766 54.854 143.102 54.686C143.438 54.506 143.726 54.266 143.966 53.966C144.218 53.666 144.404 53.33 144.524 52.958C144.644 52.574 144.704 52.184 144.704 51.788V51.752H142.418C141.842 51.752 141.374 51.824 141.014 51.968C140.654 52.1 140.396 52.286 140.24 52.526C140.084 52.766 140.006 53.042 140.006 53.354C140.006 53.678 140.078 53.96 140.222 54.2C140.378 54.44 140.6 54.626 140.888 54.758C141.176 54.878 141.53 54.938 141.95 54.938ZM148.519 56V46.982H149.887L150.013 48.71C150.205 48.302 150.457 47.954 150.769 47.666C151.093 47.378 151.477 47.156 151.921 47C152.365 46.844 152.869 46.766 153.433 46.766V48.35H152.947C152.551 48.35 152.173 48.404 151.813 48.512C151.465 48.608 151.153 48.77 150.877 48.998C150.613 49.226 150.403 49.538 150.247 49.934C150.103 50.318 150.031 50.804 150.031 51.392V56H148.519ZM159.91 56V46.982H161.278L161.404 48.71C161.596 48.302 161.848 47.954 162.16 47.666C162.484 47.378 162.868 47.156 163.312 47C163.756 46.844 164.26 46.766 164.824 46.766V48.35H164.338C163.942 48.35 163.564 48.404 163.204 48.512C162.856 48.608 162.544 48.77 162.268 48.998C162.004 49.226 161.794 49.538 161.638 49.934C161.494 50.318 161.422 50.804 161.422 51.392V56H159.91ZM170.199 56.216C169.347 56.216 168.591 56.024 167.931 55.64C167.271 55.244 166.749 54.692 166.365 53.984C165.993 53.264 165.807 52.436 165.807 51.5C165.807 50.54 165.993 49.712 166.365 49.016C166.737 48.308 167.253 47.756 167.913 47.36C168.585 46.964 169.359 46.766 170.235 46.766C171.111 46.766 171.861 46.964 172.485 47.36C173.109 47.756 173.583 48.272 173.907 48.908C174.243 49.544 174.411 50.24 174.411 50.996C174.411 51.116 174.411 51.248 174.411 51.392C174.411 51.524 174.405 51.674 174.393 51.842H166.941V50.672H172.917C172.881 49.844 172.605 49.202 172.089 48.746C171.585 48.278 170.955 48.044 170.199 48.044C169.683 48.044 169.203 48.164 168.759 48.404C168.315 48.632 167.955 48.968 167.679 49.412C167.415 49.856 167.283 50.414 167.283 51.086V51.59C167.283 52.322 167.421 52.94 167.697 53.444C167.973 53.948 168.333 54.326 168.777 54.578C169.221 54.818 169.695 54.938 170.199 54.938C170.823 54.938 171.339 54.8 171.747 54.524C172.167 54.236 172.473 53.846 172.665 53.354H174.159C174.003 53.906 173.745 54.398 173.385 54.83C173.025 55.25 172.575 55.586 172.035 55.838C171.507 56.09 170.895 56.216 170.199 56.216ZM178.692 56L175.272 46.982H176.856L179.574 54.542L182.292 46.982H183.84L180.438 56H178.692ZM185.683 56V46.982H187.195V56H185.683ZM186.439 45.038C186.139 45.038 185.887 44.942 185.683 44.75C185.491 44.546 185.395 44.294 185.395 43.994C185.395 43.694 185.491 43.454 185.683 43.274C185.887 43.082 186.139 42.986 186.439 42.986C186.727 42.986 186.973 43.082 187.177 43.274C187.381 43.454 187.483 43.694 187.483 43.994C187.483 44.294 187.381 44.546 187.177 44.75C186.973 44.942 186.727 45.038 186.439 45.038ZM193.842 56.216C192.99 56.216 192.234 56.024 191.574 55.64C190.914 55.244 190.392 54.692 190.008 53.984C189.636 53.264 189.45 52.436 189.45 51.5C189.45 50.54 189.636 49.712 190.008 49.016C190.38 48.308 190.896 47.756 191.556 47.36C192.228 46.964 193.002 46.766 193.878 46.766C194.754 46.766 195.504 46.964 196.128 47.36C196.752 47.756 197.226 48.272 197.55 48.908C197.886 49.544 198.054 50.24 198.054 50.996C198.054 51.116 198.054 51.248 198.054 51.392C198.054 51.524 198.048 51.674 198.036 51.842H190.584V50.672H196.56C196.524 49.844 196.248 49.202 195.732 48.746C195.228 48.278 194.598 48.044 193.842 48.044C193.326 48.044 192.846 48.164 192.402 48.404C191.958 48.632 191.598 48.968 191.322 49.412C191.058 49.856 190.926 50.414 190.926 51.086V51.59C190.926 52.322 191.064 52.94 191.34 53.444C191.616 53.948 191.976 54.326 192.42 54.578C192.864 54.818 193.338 54.938 193.842 54.938C194.466 54.938 194.982 54.8 195.39 54.524C195.81 54.236 196.116 53.846 196.308 53.354H197.802C197.646 53.906 197.388 54.398 197.028 54.83C196.668 55.25 196.218 55.586 195.678 55.838C195.15 56.09 194.538 56.216 193.842 56.216ZM201.56 56L198.914 46.982H200.426L202.496 54.65L202.172 54.632L204.458 46.982H206.168L208.454 54.632L208.112 54.65L210.182 46.982H211.712L209.066 56H207.518L205.142 47.99H205.484L203.108 56H201.56ZM216.803 56.216C216.071 56.216 215.423 56.096 214.859 55.856C214.307 55.604 213.863 55.25 213.527 54.794C213.191 54.338 212.981 53.804 212.897 53.192H214.445C214.517 53.516 214.649 53.81 214.841 54.074C215.033 54.338 215.297 54.548 215.633 54.704C215.969 54.86 216.365 54.938 216.821 54.938C217.253 54.938 217.601 54.878 217.865 54.758C218.141 54.626 218.345 54.458 218.477 54.254C218.621 54.038 218.693 53.804 218.693 53.552C218.693 53.18 218.603 52.898 218.423 52.706C218.255 52.514 218.003 52.364 217.667 52.256C217.331 52.148 216.929 52.052 216.461 51.968C216.077 51.896 215.693 51.8 215.309 51.68C214.937 51.548 214.595 51.392 214.283 51.212C213.983 51.02 213.743 50.78 213.563 50.492C213.383 50.204 213.293 49.85 213.293 49.43C213.293 48.914 213.425 48.458 213.689 48.062C213.965 47.654 214.343 47.336 214.823 47.108C215.315 46.88 215.897 46.766 216.569 46.766C217.529 46.766 218.309 47 218.909 47.468C219.509 47.936 219.863 48.614 219.971 49.502H218.477C218.417 49.046 218.219 48.692 217.883 48.44C217.559 48.176 217.115 48.044 216.551 48.044C215.987 48.044 215.555 48.158 215.255 48.386C214.967 48.614 214.823 48.914 214.823 49.286C214.823 49.526 214.907 49.736 215.075 49.916C215.243 50.096 215.483 50.252 215.795 50.384C216.119 50.504 216.509 50.612 216.965 50.708C217.553 50.816 218.093 50.96 218.585 51.14C219.077 51.32 219.473 51.584 219.773 51.932C220.085 52.28 220.241 52.778 220.241 53.426C220.253 53.978 220.115 54.464 219.827 54.884C219.539 55.304 219.137 55.634 218.621 55.874C218.117 56.102 217.511 56.216 216.803 56.216Z" fill="white"/>
</svg>
